<svg version="1.1" xmlns="http://www.w3.org/2000/svg" xmlns:xlink="http://www.w3.org/1999/xlink" width="20.60975" height="30.19767" viewBox="0,0,20.60975,30.19767"><g transform="translate(-261.50164,-164.51664)"><g data-paper-data="{&quot;isPaintingLayer&quot;:true}" fill-rule="nonzero" stroke-linecap="butt" stroke-linejoin="miter" stroke-miterlimit="10" stroke-dasharray="" stroke-dashoffset="0" style="mix-blend-mode: normal"><path d="M264.67269,171.71401c0,-3.32243 2.69336,-6.01579 6.01579,-6.01579c3.32243,0 6.01579,2.69336 6.01579,6.01579c0,3.32243 -2.69336,6.01579 -6.01579,6.01579c-3.32243,0 -6.01579,-2.69336 -6.01579,-6.01579z" fill="#e9c78b" stroke="none" stroke-width="1"/><path d="M263.25164,172.28243c0,-3.32243 2.69336,-6.01579 6.01579,-6.01579c3.32243,0 6.01579,2.69336 6.01579,6.01579c0,3.32243 -2.69336,6.01579 -6.01579,6.01579c-3.32243,0 -6.01579,-2.69336 -6.01579,-6.01579z" fill="none" stroke="#000000" stroke-width="3.5"/><path d="M268.32981,186.94853c0,-3.32243 2.69336,-6.01579 6.01579,-6.01579c3.32243,0 6.01579,2.69336 6.01579,6.01579c0,3.32243 -2.69336,6.01578 -6.01579,6.01578c-3.32243,0 -6.01579,-2.69335 -6.01579,-6.01578z" fill="#e9c78b" stroke="none" stroke-width="1"/><path d="M268.32981,186.94853c0,-3.32243 2.69336,-6.01579 6.01579,-6.01579c3.32243,0 6.01579,2.69336 6.01579,6.01579c0,3.32243 -2.69336,6.01578 -6.01579,6.01578c-3.32243,0 -6.01579,-2.69335 -6.01579,-6.01578z" fill="none" stroke="#000000" stroke-width="3.5"/></g></g></svg>