<svg version="1.1" xmlns="http://www.w3.org/2000/svg" xmlns:xlink="http://www.w3.org/1999/xlink" width="18.59311" height="29.99914" viewBox="0,0,18.59311,29.99914"><g transform="translate(-262.21215,-165.11223)"><g data-paper-data="{&quot;isPaintingLayer&quot;:true}" fill-rule="nonzero" stroke-linecap="butt" stroke-linejoin="miter" stroke-miterlimit="10" stroke-dasharray="" stroke-dashoffset="0" style="mix-blend-mode: normal"><path d="M268.44474,172.3096c0,-3.32243 2.69336,-6.01579 6.01579,-6.01579c3.32243,0 6.01579,2.69336 6.01579,6.01579c0,3.32243 -2.69336,6.01579 -6.01579,6.01579c-3.32243,0 -6.01579,-2.69336 -6.01579,-6.01579z" fill="#e9c78b" stroke="none" stroke-width="1"/><path d="M267.02368,172.87802c0,-3.32243 2.69336,-6.01579 6.01579,-6.01579c3.32243,0 6.01579,2.69336 6.01579,6.01579c0,3.32243 -2.69336,6.01579 -6.01579,6.01579c-3.32243,0 -6.01579,-2.69336 -6.01579,-6.01579z" fill="none" stroke="#000000" stroke-width="3.5"/><path d="M263.96215,187.34559c0,-3.32243 2.69336,-6.01579 6.01579,-6.01579c3.32243,0 6.01579,2.69336 6.01579,6.01579c0,3.32243 -2.69336,6.01578 -6.01579,6.01578c-3.32243,0 -6.01579,-2.69335 -6.01579,-6.01578z" fill="#e9c78b" stroke="none" stroke-width="1"/><path d="M263.96215,187.34559c0,-3.32243 2.69336,-6.01579 6.01579,-6.01579c3.32243,0 6.01579,2.69336 6.01579,6.01579c0,3.32243 -2.69336,6.01578 -6.01579,6.01578c-3.32243,0 -6.01579,-2.69335 -6.01579,-6.01578z" fill="none" stroke="#000000" stroke-width="3.5"/></g></g></svg>