<svg version="1.1" xmlns="http://www.w3.org/2000/svg" xmlns:xlink="http://www.w3.org/1999/xlink" width="80.26113" height="48.5" viewBox="0,0,80.26113,48.5"><g transform="translate(-215.75,-155.75)"><g data-paper-data="{&quot;isPaintingLayer&quot;:true}" fill-rule="nonzero" stroke-linecap="butt" stroke-linejoin="miter" stroke-miterlimit="10" stroke-dasharray="" stroke-dashoffset="0" style="mix-blend-mode: normal"><path d="M217.5,180c0,-12.42641 10.07359,-22.5 22.5,-22.5c12.42641,0 22.5,10.07359 22.5,22.5c0,12.42641 -10.07359,22.5 -22.5,22.5c-12.42641,0 -22.5,-10.07359 -22.5,-22.5z" fill="#e9c78b" stroke="none" stroke-width="1"/><path d="M217.5,180c0,-12.42641 10.07359,-22.5 22.5,-22.5c12.42641,0 22.5,10.07359 22.5,22.5c0,12.42641 -10.07359,22.5 -22.5,22.5c-12.42641,0 -22.5,-10.07359 -22.5,-22.5z" fill="none" stroke="#000000" stroke-width="3.5"/><path d="M264.67269,171.71401c0,-3.32243 2.69336,-6.01579 6.01579,-6.01579c3.32243,0 6.01579,2.69336 6.01579,6.01579c0,3.32243 -2.69336,6.01579 -6.01579,6.01579c-3.32243,0 -6.01579,-2.69336 -6.01579,-6.01579z" fill="#e9c78b" stroke="none" stroke-width="1"/><path d="M263.25163,172.28243c0,-3.32243 2.69336,-6.01579 6.01579,-6.01579c3.32243,0 6.01579,2.69336 6.01579,6.01579c0,3.32243 -2.69336,6.01579 -6.01579,6.01579c-3.32243,0 -6.01579,-2.69336 -6.01579,-6.01579z" fill="none" stroke="#000000" stroke-width="3.5"/><path d="M272.50867,190.13629c0,-3.32243 2.69336,-6.01579 6.01579,-6.01579c3.32243,0 6.01579,2.69336 6.01579,6.01579c0,3.32243 -2.69336,6.01578 -6.01579,6.01578c-3.32243,0 -6.01579,-2.69335 -6.01579,-6.01578z" fill="#e9c78b" stroke="none" stroke-width="1"/><path d="M272.50867,190.13629c0,-3.32243 2.69336,-6.01579 6.01579,-6.01579c3.32243,0 6.01579,2.69336 6.01579,6.01579c0,3.32243 -2.69336,6.01578 -6.01579,6.01578c-3.32243,0 -6.01579,-2.69335 -6.01579,-6.01578z" fill="none" stroke="#000000" stroke-width="3.5"/><path d="M295.23636,186.16112c0,0 0.40772,1.64102 -2.08554,3.30424c-2.49326,1.66322 -7.12079,2.83717 -7.12079,2.83717l-0.91024,-3.18635z" data-paper-data="{&quot;index&quot;:null}" fill="#8e8e8e" stroke="#000000" stroke-width="1.5"/></g></g></svg>