<svg version="1.1" xmlns="http://www.w3.org/2000/svg" xmlns:xlink="http://www.w3.org/1999/xlink" width="22.36517" height="29.40355" viewBox="0,0,22.36517,29.40355"><g transform="translate(-262.21215,-165.70782)"><g data-paper-data="{&quot;isPaintingLayer&quot;:true}" fill-rule="nonzero" stroke-linecap="butt" stroke-linejoin="miter" stroke-miterlimit="10" stroke-dasharray="" stroke-dashoffset="0" style="mix-blend-mode: normal"><path d="M272.21681,172.90519c0,-3.32243 2.69336,-6.01579 6.01579,-6.01579c3.32243,0 6.01579,2.69336 6.01579,6.01579c0,3.32243 -2.69336,6.01579 -6.01579,6.01579c-3.32243,0 -6.01579,-2.69336 -6.01579,-6.01579z" fill="#e9c78b" stroke="none" stroke-width="1"/><path d="M270.79575,173.47361c0,-3.32243 2.69336,-6.01579 6.01579,-6.01579c3.32243,0 6.01579,2.69336 6.01579,6.01579c0,3.32243 -2.69336,6.01579 -6.01579,6.01579c-3.32243,0 -6.01579,-2.69336 -6.01579,-6.01579z" fill="none" stroke="#000000" stroke-width="3.5"/><path d="M263.96215,187.34559c0,-3.32243 2.69336,-6.01579 6.01579,-6.01579c3.32243,0 6.01579,2.69336 6.01579,6.01579c0,3.32243 -2.69336,6.01578 -6.01579,6.01578c-3.32243,0 -6.01579,-2.69335 -6.01579,-6.01578z" fill="#e9c78b" stroke="none" stroke-width="1"/><path d="M263.96215,187.34559c0,-3.32243 2.69336,-6.01579 6.01579,-6.01579c3.32243,0 6.01579,2.69336 6.01579,6.01579c0,3.32243 -2.69336,6.01578 -6.01579,6.01578c-3.32243,0 -6.01579,-2.69335 -6.01579,-6.01578z" fill="none" stroke="#000000" stroke-width="3.5"/></g></g></svg>