<svg version="1.1" xmlns="http://www.w3.org/2000/svg" xmlns:xlink="http://www.w3.org/1999/xlink" width="109.70978" height="48.5" viewBox="0,0,109.70978,48.5"><g transform="translate(-215.75,-155.75)"><g data-paper-data="{&quot;isPaintingLayer&quot;:true}" fill-rule="nonzero" stroke-linecap="butt" stroke-linejoin="miter" stroke-miterlimit="10" stroke-dasharray="" stroke-dashoffset="0" style="mix-blend-mode: normal"><path d="M275.87464,185.72494c-10.51836,-2.93891 -6.45193,-6.38144 -1.70261,-7.62888c4.74932,-1.24744 19.3573,-2.63079 29.9333,0.21392c10.576,2.84472 5.03373,6.78557 -0.07739,8.12804c-5.11112,1.34247 -17.63495,2.22583 -28.15331,-0.71308z" fill="#3d3d3d" stroke="#000000" stroke-width="2.5"/><path d="M217.5,180c0,-12.42641 10.07359,-22.5 22.5,-22.5c12.42641,0 22.5,10.07359 22.5,22.5c0,12.42641 -10.07359,22.5 -22.5,22.5c-12.42641,0 -22.5,-10.07359 -22.5,-22.5z" fill="#e9c78b" stroke="none" stroke-width="1"/><path d="M217.5,180c0,-12.42641 10.07359,-22.5 22.5,-22.5c12.42641,0 22.5,10.07359 22.5,22.5c0,12.42641 -10.07359,22.5 -22.5,22.5c-12.42641,0 -22.5,-10.07359 -22.5,-22.5z" fill="none" stroke="#000000" stroke-width="3.5"/><path d="M294.84917,174.49344c0,-3.32243 2.69336,-6.01579 6.01579,-6.01579c3.32243,0 6.01579,2.69336 6.01579,6.01579c0,3.32243 -2.69336,6.01579 -6.01579,6.01579c-3.32243,0 -6.01579,-2.69336 -6.01579,-6.01579z" fill="#e9c78b" stroke="none" stroke-width="1"/><path d="M293.42811,175.06186c0,-3.32243 2.69336,-6.01579 6.01579,-6.01579c3.32243,0 6.01579,2.69336 6.01579,6.01579c0,3.32243 -2.69336,6.01579 -6.01579,6.01579c-3.32243,0 -6.01579,-2.69336 -6.01579,-6.01579z" fill="none" stroke="#000000" stroke-width="3.5"/><path d="M263.96217,187.3456c0,-3.32243 2.69336,-6.01579 6.01579,-6.01579c3.32243,0 6.01579,2.69336 6.01579,6.01579c0,3.32243 -2.69336,6.01578 -6.01579,6.01578c-3.32243,0 -6.01579,-2.69335 -6.01579,-6.01578z" fill="#e9c78b" stroke="none" stroke-width="1"/><path d="M263.96217,187.3456c0,-3.32243 2.69336,-6.01579 6.01579,-6.01579c3.32243,0 6.01579,2.69336 6.01579,6.01579c0,3.32243 -2.69336,6.01578 -6.01579,6.01578c-3.32243,0 -6.01579,-2.69335 -6.01579,-6.01578z" fill="none" stroke="#000000" stroke-width="3.5"/><path d="M312.45946,183.42977c-3.68505,-0.70268 -2.2604,-1.52579 -0.5965,-1.82404c1.6639,-0.29826 6.78173,-0.62902 10.48697,0.05115c3.70524,0.68016 1.76354,1.62241 -0.02711,1.94339c-1.79065,0.32098 -6.17831,0.53219 -9.86336,-0.17049z" fill="#000000" stroke="#000000" stroke-width="2"/></g></g></svg>