<svg version="1.1" xmlns="http://www.w3.org/2000/svg" xmlns:xlink="http://www.w3.org/1999/xlink" width="63.24762" height="27.81531" viewBox="0,0,63.24762,27.81531"><g transform="translate(-253.87393,-166.50195)"><g data-paper-data="{&quot;isPaintingLayer&quot;:true}" fill-rule="nonzero" stroke-linecap="butt" stroke-linejoin="miter" stroke-miterlimit="10" stroke-dasharray="" stroke-dashoffset="0" style="mix-blend-mode: normal"><path d="M286.51093,173.69932c0,-3.32243 2.69336,-6.01579 6.01579,-6.01579c3.32243,0 6.01579,2.69336 6.01579,6.01579c0,3.32243 -2.69336,6.01579 -6.01579,6.01579c-3.32243,0 -6.01579,-2.69336 -6.01579,-6.01579z" fill="#e9c78b" stroke="none" stroke-width="1"/><path d="M285.08987,174.26774c0,-3.32243 2.69336,-6.01579 6.01579,-6.01579c3.32243,0 6.01579,2.69336 6.01579,6.01579c0,3.32243 -2.69336,6.01579 -6.01579,6.01579c-3.32243,0 -6.01579,-2.69336 -6.01579,-6.01579z" fill="none" stroke="#000000" stroke-width="3.5"/><path d="M255.62393,186.55148c0,-3.32243 2.69336,-6.01579 6.01579,-6.01579c3.32243,0 6.01579,2.69336 6.01579,6.01579c0,3.32243 -2.69336,6.01578 -6.01579,6.01578c-3.32243,0 -6.01579,-2.69335 -6.01579,-6.01578z" fill="#e9c78b" stroke="none" stroke-width="1"/><path d="M255.62393,186.55148c0,-3.32243 2.69336,-6.01579 6.01579,-6.01579c3.32243,0 6.01579,2.69336 6.01579,6.01579c0,3.32243 -2.69336,6.01578 -6.01579,6.01578c-3.32243,0 -6.01579,-2.69335 -6.01579,-6.01578z" fill="none" stroke="#000000" stroke-width="3.5"/><path d="M267.5364,184.93082c-10.51836,-2.93891 -6.45193,-6.38144 -1.70261,-7.62888c4.74932,-1.24744 19.3573,-2.63079 29.9333,0.21392c10.576,2.84472 5.03373,6.78557 -0.07739,8.12804c-5.11112,1.34247 -17.63495,2.22583 -28.15331,-0.71308z" fill="#683800" stroke="#000000" stroke-width="2"/><path d="M304.12122,182.63565c-3.68505,-0.70268 -2.2604,-1.52579 -0.5965,-1.82404c1.6639,-0.29826 6.78173,-0.62902 10.48697,0.05115c3.70524,0.68016 1.76354,1.62241 -0.02711,1.94339c-1.79065,0.32098 -6.17831,0.53219 -9.86336,-0.17049z" fill="#000000" stroke="#000000" stroke-width="2"/></g></g></svg>