<svg version="1.1" xmlns="http://www.w3.org/2000/svg" xmlns:xlink="http://www.w3.org/1999/xlink" width="48.5" height="48.5" viewBox="0,0,48.5,48.5"><g transform="translate(-215.75,-155.75)"><g data-paper-data="{&quot;isPaintingLayer&quot;:true}" fill-rule="nonzero" stroke-linecap="butt" stroke-linejoin="miter" stroke-miterlimit="10" stroke-dasharray="" stroke-dashoffset="0" style="mix-blend-mode: normal"><path d="M217.5,180c0,-12.42641 10.07359,-22.5 22.5,-22.5c12.42641,0 22.5,10.07359 22.5,22.5c0,12.42641 -10.07359,22.5 -22.5,22.5c-12.42641,0 -22.5,-10.07359 -22.5,-22.5z" fill="#e9c78b" stroke="none" stroke-width="1"/><path d="M217.5,180c0,-12.42641 10.07359,-22.5 22.5,-22.5c12.42641,0 22.5,10.07359 22.5,22.5c0,12.42641 -10.07359,22.5 -22.5,22.5c-12.42641,0 -22.5,-10.07359 -22.5,-22.5z" fill="none" stroke="#000000" stroke-width="3.5"/><path d="M229.97575,173.67399c0,-1.38071 1.11929,-2.5 2.5,-2.5c1.38071,0 2.5,1.11929 2.5,2.5c0,1.38071 -1.11929,2.5 -2.5,2.5c-1.38071,0 -2.5,-1.11929 -2.5,-2.5z" fill="#000000" stroke="none" stroke-width="0.5"/><path d="M240.77575,173.53188c0,-1.38071 1.11929,-2.5 2.5,-2.5c1.38071,0 2.5,1.11929 2.5,2.5c0,1.38071 -1.11929,2.5 -2.5,2.5c-1.38071,0 -2.5,-1.11929 -2.5,-2.5z" fill="#000000" stroke="none" stroke-width="0.5"/><path d="M230.09652,174.65103c-0.76507,-1.4345 -0.01184,-3.0251 0.98168,-4.06809c0.79417,-0.83372 6.91629,-0.59845 8.10936,-0.92836c1.37133,-0.37921 2.2048,-2.41802 3.77273,-2.33091c3.31343,0.18408 6.34162,3.30005 6.07146,6.81209c-0.19855,2.58121 -3.16156,9.69305 -6.68869,7.87836c-1.43383,-0.7377 -1.96836,-2.35243 -2.89113,-3.50587c-0.41158,-0.51446 -2.09694,0.77403 -2.33433,0.86485c-0.83135,0.31804 -1.75044,-0.90211 -2.46535,-0.79003c-3.07974,0.48284 -6.51429,0.71331 -4.55082,-3.86812z" fill="#e9c78b" stroke="none" stroke-width="0.5"/></g></g></svg>